<?xml version="1.0" encoding="UTF-8" standalone="no"?>
<!DOCTYPE svg PUBLIC "-//W3C//DTD SVG 1.1//EN"
 "http://www.w3.org/Graphics/SVG/1.1/DTD/svg11.dtd">
<!-- Generated by graphviz version 2.47.0 (20210316.0004)
 -->
<!-- Title: graphname Pages: 1 -->
<svg width="695pt" height="2318pt"
 viewBox="0.00 0.00 695.00 2318.00" xmlns="http://www.w3.org/2000/svg" xmlns:xlink="http://www.w3.org/1999/xlink">
<g id="graph0" class="graph" transform="scale(1 1) rotate(0) translate(4 2314)">
<title>graphname</title>
<polygon fill="white" stroke="transparent" points="-4,4 -4,-2314 691,-2314 691,4 -4,4"/>
<g id="clust1" class="cluster">
<title>cluster_aws</title>
<polygon fill="none" stroke="#383838" points="8,-8 8,-2302 679,-2302 679,-8 8,-8"/>
<text text-anchor="start" x="324" y="-2283" font-family="Helvetica,sans-Serif" font-weight="bold" font-size="20.00" fill="#383838">aws</text>
</g>
<g id="clust3" class="cluster">
<title>cluster_aws_Certificate</title>
<polygon fill="none" stroke="#383838" points="16,-2158 16,-2264 415,-2264 415,-2158 16,-2158"/>
<text text-anchor="start" x="166.5" y="-2245" font-family="Helvetica,sans-Serif" font-weight="bold" font-size="20.00" fill="#383838">Certificate</text>
</g>
<g id="clust2" class="cluster">
<title>cluster_aws_default</title>
<polygon fill="none" stroke="#383838" points="28,-16 28,-2150 671,-2150 671,-16 28,-16"/>
<text text-anchor="start" x="316.5" y="-2131" font-family="Helvetica,sans-Serif" font-weight="bold" font-size="20.00" fill="#383838">default</text>
</g>
<!-- Route53Domain::default::thedownwinder.com -->
<g id="node1" class="node">
<title>Route53Domain::default::thedownwinder.com</title>
<polygon fill="none" stroke="#383838" points="306,-2112 125,-2112 125,-2052 306,-2052 306,-2112"/>
<text text-anchor="start" x="137.5" y="-2092.2" font-family="Helvetica,sans-Serif" font-weight="bold" font-size="16.00" fill="#707070">Route53Domain</text>
<text text-anchor="start" x="137.5" y="-2065.6" font-family="Helvetica,sans-Serif" font-size="18.00" fill="#383838">thedownwinder.com</text>
</g>
<!-- Certificate::default::arn:aws:acm:us&#45;east&#45;1:760158738954:certificate/7af96fef&#45;b9e0&#45;4ea9&#45;92a2&#45;61434729a1e3 -->
<g id="node2" class="node">
<title>Certificate::default::arn:aws:acm:us&#45;east&#45;1:760158738954:certificate/7af96fef&#45;b9e0&#45;4ea9&#45;92a2&#45;61434729a1e3</title>
<polygon fill="none" stroke="#383838" points="339,-2034 92,-2034 92,-1974 339,-1974 339,-2034"/>
<text text-anchor="start" x="104.5" y="-2014.2" font-family="Helvetica,sans-Serif" font-weight="bold" font-size="16.00" fill="#707070">Certificate</text>
<text text-anchor="start" x="104.5" y="-1987.6" font-family="Helvetica,sans-Serif" font-size="18.00" fill="#383838">dev.test.thedownwinder.com</text>
</g>
<!-- Certificate::default::arn:aws:acm:us&#45;east&#45;1:760158738954:certificate/b69c35b8&#45;2bd7&#45;4443&#45;957b&#45;f1c508347408 -->
<g id="node3" class="node">
<title>Certificate::default::arn:aws:acm:us&#45;east&#45;1:760158738954:certificate/b69c35b8&#45;2bd7&#45;4443&#45;957b&#45;f1c508347408</title>
<polygon fill="none" stroke="#383838" points="660.5,-84 445.5,-84 445.5,-24 660.5,-24 660.5,-84"/>
<text text-anchor="start" x="458" y="-64.2" font-family="Helvetica,sans-Serif" font-weight="bold" font-size="16.00" fill="#707070">Certificate</text>
<text text-anchor="start" x="458" y="-37.6" font-family="Helvetica,sans-Serif" font-size="18.00" fill="#383838">test.thedownwinder.com</text>
</g>
<!-- HostedZone::default::/hostedzone/Z001297822CXKC39ZS4I3 -->
<g id="node4" class="node">
<title>HostedZone::default::/hostedzone/Z001297822CXKC39ZS4I3</title>
<polygon fill="none" stroke="#383838" points="308.5,-1956 122.5,-1956 122.5,-1896 308.5,-1896 308.5,-1956"/>
<text text-anchor="start" x="134.5" y="-1936.2" font-family="Helvetica,sans-Serif" font-weight="bold" font-size="16.00" fill="#707070">HostedZone</text>
<text text-anchor="start" x="134.5" y="-1909.6" font-family="Helvetica,sans-Serif" font-size="18.00" fill="#383838">thedownwinder.com.</text>
</g>
<!-- HostedZone::default::/hostedzone/Z020753517XIHYCCGLWF9 -->
<g id="node5" class="node">
<title>HostedZone::default::/hostedzone/Z020753517XIHYCCGLWF9</title>
<polygon fill="none" stroke="#383838" points="663,-1878 443,-1878 443,-1818 663,-1818 663,-1878"/>
<text text-anchor="start" x="455" y="-1858.2" font-family="Helvetica,sans-Serif" font-weight="bold" font-size="16.00" fill="#707070">HostedZone</text>
<text text-anchor="start" x="455" y="-1831.6" font-family="Helvetica,sans-Serif" font-size="18.00" fill="#383838">test.thedownwinder.com.</text>
</g>
<!-- S3Bucket::default::elasticbeanstalk&#45;eu&#45;west&#45;3&#45;760158738954 -->
<g id="node6" class="node">
<title>S3Bucket::default::elasticbeanstalk&#45;eu&#45;west&#45;3&#45;760158738954</title>
<polygon fill="none" stroke="#383838" points="394.5,-1878 36.5,-1878 36.5,-1818 394.5,-1818 394.5,-1878"/>
<text text-anchor="start" x="48.5" y="-1858.2" font-family="Helvetica,sans-Serif" font-weight="bold" font-size="16.00" fill="#707070">S3Bucket</text>
<text text-anchor="start" x="48.5" y="-1831.6" font-family="Helvetica,sans-Serif" font-size="18.00" fill="#383838">elasticbeanstalk&#45;eu&#45;west&#45;3&#45;760158738954</text>
</g>
<!-- S3Bucket::default::thedownwinder.com -->
<g id="node7" class="node">
<title>S3Bucket::default::thedownwinder.com</title>
<polygon fill="none" stroke="#383838" points="306,-1800 125,-1800 125,-1740 306,-1740 306,-1800"/>
<text text-anchor="start" x="137.5" y="-1780.2" font-family="Helvetica,sans-Serif" font-weight="bold" font-size="16.00" fill="#707070">S3Bucket</text>
<text text-anchor="start" x="137.5" y="-1753.6" font-family="Helvetica,sans-Serif" font-size="18.00" fill="#383838">thedownwinder.com</text>
</g>
<!-- S3Bucket::default::tutogrucloud3.com -->
<g id="node8" class="node">
<title>S3Bucket::default::tutogrucloud3.com</title>
<polygon fill="none" stroke="#383838" points="638.5,-825 467.5,-825 467.5,-765 638.5,-765 638.5,-825"/>
<text text-anchor="start" x="480" y="-805.2" font-family="Helvetica,sans-Serif" font-weight="bold" font-size="16.00" fill="#707070">S3Bucket</text>
<text text-anchor="start" x="480" y="-778.6" font-family="Helvetica,sans-Serif" font-size="18.00" fill="#383838">tutogrucloud3.com</text>
</g>
<!-- S3Bucket::default::www.thedownwinder.com -->
<g id="node9" class="node">
<title>S3Bucket::default::www.thedownwinder.com</title>
<polygon fill="none" stroke="#383838" points="327,-1722 104,-1722 104,-1662 327,-1662 327,-1722"/>
<text text-anchor="start" x="116.5" y="-1702.2" font-family="Helvetica,sans-Serif" font-weight="bold" font-size="16.00" fill="#707070">S3Bucket</text>
<text text-anchor="start" x="116.5" y="-1675.6" font-family="Helvetica,sans-Serif" font-size="18.00" fill="#383838">www.thedownwinder.com</text>
</g>
<!-- S3Object::default::asset&#45;manifest.json -->
<g id="node10" class="node">
<title>S3Object::default::asset&#45;manifest.json</title>
<polygon fill="none" stroke="#383838" points="304.5,-1566 126.5,-1566 126.5,-1506 304.5,-1506 304.5,-1566"/>
<text text-anchor="start" x="138.5" y="-1546.2" font-family="Helvetica,sans-Serif" font-weight="bold" font-size="16.00" fill="#707070">S3Object</text>
<text text-anchor="start" x="138.5" y="-1519.6" font-family="Helvetica,sans-Serif" font-size="18.00" fill="#383838">asset&#45;manifest.json</text>
</g>
<!-- S3Object::default::asset&#45;manifest.json&#45;&gt;S3Bucket::default::tutogrucloud3.com -->
<g id="edge1" class="edge">
<title>S3Object::default::asset&#45;manifest.json&#45;&gt;S3Bucket::default::tutogrucloud3.com</title>
<path fill="none" stroke="#383838" d="M304.59,-1539.57C343.32,-1536.4 386.4,-1525.64 415,-1497 509.41,-1402.47 541.9,-970.91 549.86,-835.66"/>
<polygon fill="#383838" stroke="#383838" points="553.38,-835.52 550.46,-825.33 546.39,-835.12 553.38,-835.52"/>
</g>
<!-- S3Object::default::favicon.ico -->
<g id="node11" class="node">
<title>S3Object::default::favicon.ico</title>
<polygon fill="none" stroke="#383838" points="270,-1488 161,-1488 161,-1428 270,-1428 270,-1488"/>
<text text-anchor="start" x="173.5" y="-1468.2" font-family="Helvetica,sans-Serif" font-weight="bold" font-size="16.00" fill="#707070">S3Object</text>
<text text-anchor="start" x="173.5" y="-1441.6" font-family="Helvetica,sans-Serif" font-size="18.00" fill="#383838">favicon.ico</text>
</g>
<!-- S3Object::default::favicon.ico&#45;&gt;S3Bucket::default::tutogrucloud3.com -->
<g id="edge2" class="edge">
<title>S3Object::default::favicon.ico&#45;&gt;S3Bucket::default::tutogrucloud3.com</title>
<path fill="none" stroke="#383838" d="M270.15,-1462.41C314.84,-1462.99 377.09,-1456.08 415,-1419 499.36,-1336.48 538.14,-959.99 548.82,-835.27"/>
<polygon fill="#383838" stroke="#383838" points="552.33,-835.27 549.68,-825.01 545.36,-834.69 552.33,-835.27"/>
</g>
<!-- S3Object::default::index.html -->
<g id="node12" class="node">
<title>S3Object::default::index.html</title>
<polygon fill="none" stroke="#383838" points="268.5,-1410 162.5,-1410 162.5,-1350 268.5,-1350 268.5,-1410"/>
<text text-anchor="start" x="174.5" y="-1390.2" font-family="Helvetica,sans-Serif" font-weight="bold" font-size="16.00" fill="#707070">S3Object</text>
<text text-anchor="start" x="174.5" y="-1363.6" font-family="Helvetica,sans-Serif" font-size="18.00" fill="#383838">index.html</text>
</g>
<!-- S3Object::default::index.html&#45;&gt;S3Bucket::default::tutogrucloud3.com -->
<g id="edge3" class="edge">
<title>S3Object::default::index.html&#45;&gt;S3Bucket::default::tutogrucloud3.com</title>
<path fill="none" stroke="#383838" d="M268.56,-1384.11C313.15,-1384.66 376.16,-1377.88 415,-1341 489.31,-1270.44 533.81,-949.11 547.47,-835.19"/>
<polygon fill="#383838" stroke="#383838" points="550.96,-835.48 548.66,-825.14 544.01,-834.66 550.96,-835.48"/>
</g>
<!-- S3Object::default::logo192.png -->
<g id="node13" class="node">
<title>S3Object::default::logo192.png</title>
<polygon fill="none" stroke="#383838" points="276,-1332 155,-1332 155,-1272 276,-1272 276,-1332"/>
<text text-anchor="start" x="167.5" y="-1312.2" font-family="Helvetica,sans-Serif" font-weight="bold" font-size="16.00" fill="#707070">S3Object</text>
<text text-anchor="start" x="167.5" y="-1285.6" font-family="Helvetica,sans-Serif" font-size="18.00" fill="#383838">logo192.png</text>
</g>
<!-- S3Object::default::logo192.png&#45;&gt;S3Bucket::default::tutogrucloud3.com -->
<g id="edge4" class="edge">
<title>S3Object::default::logo192.png&#45;&gt;S3Bucket::default::tutogrucloud3.com</title>
<path fill="none" stroke="#383838" d="M276.25,-1305.71C319.92,-1305.12 377.78,-1296.98 415,-1263 479.37,-1204.22 528.83,-937.18 545.71,-834.96"/>
<polygon fill="#383838" stroke="#383838" points="549.18,-835.46 547.34,-825.03 542.27,-834.33 549.18,-835.46"/>
</g>
<!-- S3Object::default::logo512.png -->
<g id="node14" class="node">
<title>S3Object::default::logo512.png</title>
<polygon fill="none" stroke="#383838" points="276,-1254 155,-1254 155,-1194 276,-1194 276,-1254"/>
<text text-anchor="start" x="167.5" y="-1234.2" font-family="Helvetica,sans-Serif" font-weight="bold" font-size="16.00" fill="#707070">S3Object</text>
<text text-anchor="start" x="167.5" y="-1207.6" font-family="Helvetica,sans-Serif" font-size="18.00" fill="#383838">logo512.png</text>
</g>
<!-- S3Object::default::logo512.png&#45;&gt;S3Bucket::default::tutogrucloud3.com -->
<g id="edge5" class="edge">
<title>S3Object::default::logo512.png&#45;&gt;S3Bucket::default::tutogrucloud3.com</title>
<path fill="none" stroke="#383838" d="M276.19,-1227.12C319.54,-1226.19 377.03,-1217.87 415,-1185 520.8,-1093.41 544.91,-915.08 550.39,-835.28"/>
<polygon fill="#383838" stroke="#383838" points="553.9,-835.35 551.02,-825.15 546.91,-834.91 553.9,-835.35"/>
</g>
<!-- S3Object::default::manifest.json -->
<g id="node15" class="node">
<title>S3Object::default::manifest.json</title>
<polygon fill="none" stroke="#383838" points="280.5,-1176 150.5,-1176 150.5,-1116 280.5,-1116 280.5,-1176"/>
<text text-anchor="start" x="162.5" y="-1156.2" font-family="Helvetica,sans-Serif" font-weight="bold" font-size="16.00" fill="#707070">S3Object</text>
<text text-anchor="start" x="162.5" y="-1129.6" font-family="Helvetica,sans-Serif" font-size="18.00" fill="#383838">manifest.json</text>
</g>
<!-- S3Object::default::manifest.json&#45;&gt;S3Bucket::default::tutogrucloud3.com -->
<g id="edge6" class="edge">
<title>S3Object::default::manifest.json&#45;&gt;S3Bucket::default::tutogrucloud3.com</title>
<path fill="none" stroke="#383838" d="M280.96,-1148.06C323.24,-1146.14 377.45,-1137.09 415,-1107 501.33,-1037.83 534.64,-903.24 546.32,-835.71"/>
<polygon fill="#383838" stroke="#383838" points="549.84,-835.9 548.02,-825.47 542.93,-834.76 549.84,-835.9"/>
</g>
<!-- S3Object::default::robots.txt -->
<g id="node16" class="node">
<title>S3Object::default::robots.txt</title>
<polygon fill="none" stroke="#383838" points="265,-1098 166,-1098 166,-1038 265,-1038 265,-1098"/>
<text text-anchor="start" x="178.5" y="-1078.2" font-family="Helvetica,sans-Serif" font-weight="bold" font-size="16.00" fill="#707070">S3Object</text>
<text text-anchor="start" x="178.5" y="-1051.6" font-family="Helvetica,sans-Serif" font-size="18.00" fill="#383838">robots.txt</text>
</g>
<!-- S3Object::default::robots.txt&#45;&gt;S3Bucket::default::tutogrucloud3.com -->
<g id="edge7" class="edge">
<title>S3Object::default::robots.txt&#45;&gt;S3Bucket::default::tutogrucloud3.com</title>
<path fill="none" stroke="#383838" d="M265.35,-1069.26C308.44,-1068.02 371.05,-1060.22 415,-1029 482.61,-980.98 522.04,-888.26 540.06,-835.08"/>
<polygon fill="#383838" stroke="#383838" points="543.47,-835.91 543.28,-825.32 536.82,-833.72 543.47,-835.91"/>
</g>
<!-- S3Object::default::static/css/main.9d5b29c0.chunk.css -->
<g id="node17" class="node">
<title>S3Object::default::static/css/main.9d5b29c0.chunk.css</title>
<polygon fill="none" stroke="#383838" points="370.5,-1020 60.5,-1020 60.5,-960 370.5,-960 370.5,-1020"/>
<text text-anchor="start" x="72.5" y="-1000.2" font-family="Helvetica,sans-Serif" font-weight="bold" font-size="16.00" fill="#707070">S3Object</text>
<text text-anchor="start" x="72.5" y="-973.6" font-family="Helvetica,sans-Serif" font-size="18.00" fill="#383838">static/css/main.9d5b29c0.chunk.css</text>
</g>
<!-- S3Object::default::static/css/main.9d5b29c0.chunk.css&#45;&gt;S3Bucket::default::tutogrucloud3.com -->
<g id="edge8" class="edge">
<title>S3Object::default::static/css/main.9d5b29c0.chunk.css&#45;&gt;S3Bucket::default::tutogrucloud3.com</title>
<path fill="none" stroke="#383838" d="M370.58,-970.34C386.12,-965.27 401.22,-958.93 415,-951 464.25,-922.66 504.8,-870.07 528.68,-833.84"/>
<polygon fill="#383838" stroke="#383838" points="531.9,-835.31 534.39,-825.01 526.02,-831.51 531.9,-835.31"/>
</g>
<!-- S3Object::default::static/css/main.9d5b29c0.chunk.css.map -->
<g id="node18" class="node">
<title>S3Object::default::static/css/main.9d5b29c0.chunk.css.map</title>
<polygon fill="none" stroke="#383838" points="390,-942 41,-942 41,-882 390,-882 390,-942"/>
<text text-anchor="start" x="53.5" y="-922.2" font-family="Helvetica,sans-Serif" font-weight="bold" font-size="16.00" fill="#707070">S3Object</text>
<text text-anchor="start" x="53.5" y="-895.6" font-family="Helvetica,sans-Serif" font-size="18.00" fill="#383838">static/css/main.9d5b29c0.chunk.css.map</text>
</g>
<!-- S3Object::default::static/css/main.9d5b29c0.chunk.css.map&#45;&gt;S3Bucket::default::tutogrucloud3.com -->
<g id="edge9" class="edge">
<title>S3Object::default::static/css/main.9d5b29c0.chunk.css.map&#45;&gt;S3Bucket::default::tutogrucloud3.com</title>
<path fill="none" stroke="#383838" d="M388.03,-881.98C397.23,-879.23 406.28,-876.24 415,-873 444.13,-862.17 474.38,-845.61 499.01,-830.52"/>
<polygon fill="#383838" stroke="#383838" points="501.18,-833.29 507.82,-825.04 497.48,-827.35 501.18,-833.29"/>
</g>
<!-- S3Object::default::static/js/2.94139cee.chunk.js -->
<g id="node19" class="node">
<title>S3Object::default::static/js/2.94139cee.chunk.js</title>
<polygon fill="none" stroke="#383838" points="342,-864 89,-864 89,-804 342,-804 342,-864"/>
<text text-anchor="start" x="101.5" y="-844.2" font-family="Helvetica,sans-Serif" font-weight="bold" font-size="16.00" fill="#707070">S3Object</text>
<text text-anchor="start" x="101.5" y="-817.6" font-family="Helvetica,sans-Serif" font-size="18.00" fill="#383838">static/js/2.94139cee.chunk.js</text>
</g>
<!-- S3Object::default::static/js/2.94139cee.chunk.js&#45;&gt;S3Bucket::default::tutogrucloud3.com -->
<g id="edge10" class="edge">
<title>S3Object::default::static/js/2.94139cee.chunk.js&#45;&gt;S3Bucket::default::tutogrucloud3.com</title>
<path fill="none" stroke="#383838" d="M342.38,-819.37C380.37,-814.95 421.43,-810.18 457.05,-806.04"/>
<polygon fill="#383838" stroke="#383838" points="457.9,-809.46 467.43,-804.83 457.09,-802.51 457.9,-809.46"/>
</g>
<!-- S3Object::default::static/js/2.94139cee.chunk.js.LICENSE.txt -->
<g id="node20" class="node">
<title>S3Object::default::static/js/2.94139cee.chunk.js.LICENSE.txt</title>
<polygon fill="none" stroke="#383838" points="395,-786 36,-786 36,-726 395,-726 395,-786"/>
<text text-anchor="start" x="48.5" y="-766.2" font-family="Helvetica,sans-Serif" font-weight="bold" font-size="16.00" fill="#707070">S3Object</text>
<text text-anchor="start" x="48.5" y="-739.6" font-family="Helvetica,sans-Serif" font-size="18.00" fill="#383838">static/js/2.94139cee.chunk.js.LICENSE.txt</text>
</g>
<!-- S3Object::default::static/js/2.94139cee.chunk.js.LICENSE.txt&#45;&gt;S3Bucket::default::tutogrucloud3.com -->
<g id="edge11" class="edge">
<title>S3Object::default::static/js/2.94139cee.chunk.js.LICENSE.txt&#45;&gt;S3Bucket::default::tutogrucloud3.com</title>
<path fill="none" stroke="#383838" d="M395.06,-776.76C416.51,-779.25 437.73,-781.72 457.3,-783.99"/>
<polygon fill="#383838" stroke="#383838" points="457.04,-787.48 467.37,-785.16 457.85,-780.53 457.04,-787.48"/>
</g>
<!-- S3Object::default::static/js/2.94139cee.chunk.js.map -->
<g id="node21" class="node">
<title>S3Object::default::static/js/2.94139cee.chunk.js.map</title>
<polygon fill="none" stroke="#383838" points="361.5,-708 69.5,-708 69.5,-648 361.5,-648 361.5,-708"/>
<text text-anchor="start" x="81.5" y="-688.2" font-family="Helvetica,sans-Serif" font-weight="bold" font-size="16.00" fill="#707070">S3Object</text>
<text text-anchor="start" x="81.5" y="-661.6" font-family="Helvetica,sans-Serif" font-size="18.00" fill="#383838">static/js/2.94139cee.chunk.js.map</text>
</g>
<!-- S3Object::default::static/js/2.94139cee.chunk.js.map&#45;&gt;S3Bucket::default::tutogrucloud3.com -->
<g id="edge12" class="edge">
<title>S3Object::default::static/js/2.94139cee.chunk.js.map&#45;&gt;S3Bucket::default::tutogrucloud3.com</title>
<path fill="none" stroke="#383838" d="M361.68,-700.84C379.88,-705.36 398.05,-710.7 415,-717 444.13,-727.83 474.38,-744.39 499.01,-759.48"/>
<polygon fill="#383838" stroke="#383838" points="497.48,-762.65 507.82,-764.96 501.18,-756.71 497.48,-762.65"/>
</g>
<!-- S3Object::default::static/js/3.a00db22d.chunk.js -->
<g id="node22" class="node">
<title>S3Object::default::static/js/3.a00db22d.chunk.js</title>
<polygon fill="none" stroke="#383838" points="342,-630 89,-630 89,-570 342,-570 342,-630"/>
<text text-anchor="start" x="101.5" y="-610.2" font-family="Helvetica,sans-Serif" font-weight="bold" font-size="16.00" fill="#707070">S3Object</text>
<text text-anchor="start" x="101.5" y="-583.6" font-family="Helvetica,sans-Serif" font-size="18.00" fill="#383838">static/js/3.a00db22d.chunk.js</text>
</g>
<!-- S3Object::default::static/js/3.a00db22d.chunk.js&#45;&gt;S3Bucket::default::tutogrucloud3.com -->
<g id="edge13" class="edge">
<title>S3Object::default::static/js/3.a00db22d.chunk.js&#45;&gt;S3Bucket::default::tutogrucloud3.com</title>
<path fill="none" stroke="#383838" d="M342.24,-611.82C367.44,-617.67 392.93,-626.3 415,-639 464.25,-667.34 504.8,-719.93 528.68,-756.16"/>
<polygon fill="#383838" stroke="#383838" points="526.02,-758.49 534.39,-764.99 531.9,-754.69 526.02,-758.49"/>
</g>
<!-- S3Object::default::static/js/3.a00db22d.chunk.js.map -->
<g id="node23" class="node">
<title>S3Object::default::static/js/3.a00db22d.chunk.js.map</title>
<polygon fill="none" stroke="#383838" points="362,-552 69,-552 69,-492 362,-492 362,-552"/>
<text text-anchor="start" x="81.5" y="-532.2" font-family="Helvetica,sans-Serif" font-weight="bold" font-size="16.00" fill="#707070">S3Object</text>
<text text-anchor="start" x="81.5" y="-505.6" font-family="Helvetica,sans-Serif" font-size="18.00" fill="#383838">static/js/3.a00db22d.chunk.js.map</text>
</g>
<!-- S3Object::default::static/js/3.a00db22d.chunk.js.map&#45;&gt;S3Bucket::default::tutogrucloud3.com -->
<g id="edge14" class="edge">
<title>S3Object::default::static/js/3.a00db22d.chunk.js.map&#45;&gt;S3Bucket::default::tutogrucloud3.com</title>
<path fill="none" stroke="#383838" d="M362.07,-535.61C380.94,-541.56 399.18,-549.76 415,-561 482.61,-609.02 522.04,-701.74 540.06,-754.92"/>
<polygon fill="#383838" stroke="#383838" points="536.82,-756.28 543.28,-764.68 543.47,-754.09 536.82,-756.28"/>
</g>
<!-- S3Object::default::static/js/main.e5e6c0a8.chunk.js -->
<g id="node24" class="node">
<title>S3Object::default::static/js/main.e5e6c0a8.chunk.js</title>
<polygon fill="none" stroke="#383838" points="356,-474 75,-474 75,-414 356,-414 356,-474"/>
<text text-anchor="start" x="87.5" y="-454.2" font-family="Helvetica,sans-Serif" font-weight="bold" font-size="16.00" fill="#707070">S3Object</text>
<text text-anchor="start" x="87.5" y="-427.6" font-family="Helvetica,sans-Serif" font-size="18.00" fill="#383838">static/js/main.e5e6c0a8.chunk.js</text>
</g>
<!-- S3Object::default::static/js/main.e5e6c0a8.chunk.js&#45;&gt;S3Bucket::default::tutogrucloud3.com -->
<g id="edge15" class="edge">
<title>S3Object::default::static/js/main.e5e6c0a8.chunk.js&#45;&gt;S3Bucket::default::tutogrucloud3.com</title>
<path fill="none" stroke="#383838" d="M356.18,-453.71C377.44,-460 397.94,-469.33 415,-483 501.33,-552.17 534.64,-686.76 546.32,-754.29"/>
<polygon fill="#383838" stroke="#383838" points="542.93,-755.24 548.02,-764.53 549.84,-754.1 542.93,-755.24"/>
</g>
<!-- S3Object::default::static/js/main.e5e6c0a8.chunk.js.map -->
<g id="node25" class="node">
<title>S3Object::default::static/js/main.e5e6c0a8.chunk.js.map</title>
<polygon fill="none" stroke="#383838" points="376,-396 55,-396 55,-336 376,-336 376,-396"/>
<text text-anchor="start" x="67.5" y="-376.2" font-family="Helvetica,sans-Serif" font-weight="bold" font-size="16.00" fill="#707070">S3Object</text>
<text text-anchor="start" x="67.5" y="-349.6" font-family="Helvetica,sans-Serif" font-size="18.00" fill="#383838">static/js/main.e5e6c0a8.chunk.js.map</text>
</g>
<!-- S3Object::default::static/js/main.e5e6c0a8.chunk.js.map&#45;&gt;S3Bucket::default::tutogrucloud3.com -->
<g id="edge16" class="edge">
<title>S3Object::default::static/js/main.e5e6c0a8.chunk.js.map&#45;&gt;S3Bucket::default::tutogrucloud3.com</title>
<path fill="none" stroke="#383838" d="M376.37,-381.54C390.4,-387.45 403.58,-395.12 415,-405 520.8,-496.59 544.91,-674.92 550.39,-754.72"/>
<polygon fill="#383838" stroke="#383838" points="546.91,-755.09 551.02,-764.85 553.9,-754.65 546.91,-755.09"/>
</g>
<!-- S3Object::default::static/js/runtime&#45;main.9488bb87.js -->
<g id="node26" class="node">
<title>S3Object::default::static/js/runtime&#45;main.9488bb87.js</title>
<polygon fill="none" stroke="#383838" points="363,-318 68,-318 68,-258 363,-258 363,-318"/>
<text text-anchor="start" x="80.5" y="-298.2" font-family="Helvetica,sans-Serif" font-weight="bold" font-size="16.00" fill="#707070">S3Object</text>
<text text-anchor="start" x="80.5" y="-271.6" font-family="Helvetica,sans-Serif" font-size="18.00" fill="#383838">static/js/runtime&#45;main.9488bb87.js</text>
</g>
<!-- S3Object::default::static/js/runtime&#45;main.9488bb87.js&#45;&gt;S3Bucket::default::tutogrucloud3.com -->
<g id="edge17" class="edge">
<title>S3Object::default::static/js/runtime&#45;main.9488bb87.js&#45;&gt;S3Bucket::default::tutogrucloud3.com</title>
<path fill="none" stroke="#383838" d="M363.06,-297.59C382.18,-304.08 400.22,-313.5 415,-327 479.37,-385.78 528.83,-652.82 545.71,-755.04"/>
<polygon fill="#383838" stroke="#383838" points="542.27,-755.67 547.34,-764.97 549.18,-754.54 542.27,-755.67"/>
</g>
<!-- S3Object::default::static/js/runtime&#45;main.9488bb87.js.map -->
<g id="node27" class="node">
<title>S3Object::default::static/js/runtime&#45;main.9488bb87.js.map</title>
<polygon fill="none" stroke="#383838" points="382.5,-240 48.5,-240 48.5,-180 382.5,-180 382.5,-240"/>
<text text-anchor="start" x="60.5" y="-220.2" font-family="Helvetica,sans-Serif" font-weight="bold" font-size="16.00" fill="#707070">S3Object</text>
<text text-anchor="start" x="60.5" y="-193.6" font-family="Helvetica,sans-Serif" font-size="18.00" fill="#383838">static/js/runtime&#45;main.9488bb87.js.map</text>
</g>
<!-- S3Object::default::static/js/runtime&#45;main.9488bb87.js.map&#45;&gt;S3Bucket::default::tutogrucloud3.com -->
<g id="edge18" class="edge">
<title>S3Object::default::static/js/runtime&#45;main.9488bb87.js.map&#45;&gt;S3Bucket::default::tutogrucloud3.com</title>
<path fill="none" stroke="#383838" d="M382.6,-226.92C394.44,-232.68 405.45,-239.93 415,-249 489.31,-319.56 533.81,-640.89 547.47,-754.81"/>
<polygon fill="#383838" stroke="#383838" points="544.01,-755.34 548.66,-764.86 550.96,-754.52 544.01,-755.34"/>
</g>
<!-- S3Object::default::static/media/logo.6ce24c58.svg -->
<g id="node28" class="node">
<title>S3Object::default::static/media/logo.6ce24c58.svg</title>
<polygon fill="none" stroke="#383838" points="352,-162 79,-162 79,-102 352,-102 352,-162"/>
<text text-anchor="start" x="91.5" y="-142.2" font-family="Helvetica,sans-Serif" font-weight="bold" font-size="16.00" fill="#707070">S3Object</text>
<text text-anchor="start" x="91.5" y="-115.6" font-family="Helvetica,sans-Serif" font-size="18.00" fill="#383838">static/media/logo.6ce24c58.svg</text>
</g>
<!-- S3Object::default::static/media/logo.6ce24c58.svg&#45;&gt;S3Bucket::default::tutogrucloud3.com -->
<g id="edge19" class="edge">
<title>S3Object::default::static/media/logo.6ce24c58.svg&#45;&gt;S3Bucket::default::tutogrucloud3.com</title>
<path fill="none" stroke="#383838" d="M352.04,-136.97C375.43,-143.49 397.74,-154.12 415,-171 499.36,-253.52 538.14,-630.01 548.82,-754.73"/>
<polygon fill="#383838" stroke="#383838" points="545.36,-755.31 549.68,-764.99 552.33,-754.73 545.36,-755.31"/>
</g>
<!-- Route53Record::default::A::dev.test.thedownwinder.com. -->
<g id="node29" class="node">
<title>Route53Record::default::A::dev.test.thedownwinder.com.</title>
<polygon fill="none" stroke="#383838" points="342,-1644 89,-1644 89,-1584 342,-1584 342,-1644"/>
<text text-anchor="start" x="101.5" y="-1624.2" font-family="Helvetica,sans-Serif" font-weight="bold" font-size="16.00" fill="#707070">Route53Record</text>
<text text-anchor="start" x="101.5" y="-1597.6" font-family="Helvetica,sans-Serif" font-size="18.00" fill="#383838">dev.test.thedownwinder.com.</text>
</g>
<!-- Route53Record::default::A::dev.test.thedownwinder.com.&#45;&gt;HostedZone::default::/hostedzone/Z020753517XIHYCCGLWF9 -->
<g id="edge21" class="edge">
<title>Route53Record::default::A::dev.test.thedownwinder.com.&#45;&gt;HostedZone::default::/hostedzone/Z020753517XIHYCCGLWF9</title>
<path fill="none" stroke="#383838" d="M342.05,-1623.7C367.6,-1629.67 393.28,-1638.89 415,-1653 473.46,-1690.99 514.32,-1763.46 535.42,-1808.55"/>
<polygon fill="#383838" stroke="#383838" points="532.28,-1810.1 539.62,-1817.74 538.64,-1807.19 532.28,-1810.1"/>
</g>
<!-- CloudFrontDistribution::default::E32DSB3BYJUBZ4 -->
<g id="node30" class="node">
<title>CloudFrontDistribution::default::E32DSB3BYJUBZ4</title>
<polygon fill="none" stroke="#383838" points="346.5,-84 84.5,-84 84.5,-24 346.5,-24 346.5,-84"/>
<text text-anchor="start" x="96.5" y="-64.2" font-family="Helvetica,sans-Serif" font-weight="bold" font-size="16.00" fill="#707070">CloudFrontDistribution</text>
<text text-anchor="start" x="96.5" y="-37.6" font-family="Helvetica,sans-Serif" font-size="18.00" fill="#383838">distribution&#45;tutogrucloud3.com</text>
</g>
<!-- CloudFrontDistribution::default::E32DSB3BYJUBZ4&#45;&gt;Certificate::default::arn:aws:acm:us&#45;east&#45;1:760158738954:certificate/b69c35b8&#45;2bd7&#45;4443&#45;957b&#45;f1c508347408 -->
<g id="edge22" class="edge">
<title>CloudFrontDistribution::default::E32DSB3BYJUBZ4&#45;&gt;Certificate::default::arn:aws:acm:us&#45;east&#45;1:760158738954:certificate/b69c35b8&#45;2bd7&#45;4443&#45;957b&#45;f1c508347408</title>
<path fill="none" stroke="#383838" d="M346.69,-54C375.94,-54 406.79,-54 435.44,-54"/>
<polygon fill="#383838" stroke="#383838" points="435.47,-57.5 445.47,-54 435.47,-50.5 435.47,-57.5"/>
</g>
<!-- CloudFrontDistribution::default::E32DSB3BYJUBZ4&#45;&gt;S3Bucket::default::tutogrucloud3.com -->
<g id="edge23" class="edge">
<title>CloudFrontDistribution::default::E32DSB3BYJUBZ4&#45;&gt;S3Bucket::default::tutogrucloud3.com</title>
<path fill="none" stroke="#383838" d="M346.73,-57.16C372.14,-63.52 396.57,-74.55 415,-93 509.41,-187.53 541.9,-619.09 549.86,-754.34"/>
<polygon fill="#383838" stroke="#383838" points="546.39,-754.88 550.46,-764.67 553.38,-754.48 546.39,-754.88"/>
</g>
<!-- Route53Record::Certificate::CNAME::_cf1bd63fcecbcac1e7e9651184269a42.test.thedownwinder.com. -->
<g id="node31" class="node">
<title>Route53Record::Certificate::CNAME::_cf1bd63fcecbcac1e7e9651184269a42.test.thedownwinder.com.</title>
<polygon fill="none" stroke="#383838" points="407,-2226 24,-2226 24,-2166 407,-2166 407,-2226"/>
<text text-anchor="start" x="36.5" y="-2206.2" font-family="Helvetica,sans-Serif" font-weight="bold" font-size="16.00" fill="#707070">Route53Record</text>
<text text-anchor="start" x="36.5" y="-2179.6" font-family="Helvetica,sans-Serif" font-size="18.00" fill="#383838">certificate&#45;validation&#45;test.thedownwinder.com.</text>
</g>
<!-- Route53Record::Certificate::CNAME::_cf1bd63fcecbcac1e7e9651184269a42.test.thedownwinder.com.&#45;&gt;HostedZone::default::/hostedzone/Z020753517XIHYCCGLWF9 -->
<g id="edge20" class="edge">
<title>Route53Record::Certificate::CNAME::_cf1bd63fcecbcac1e7e9651184269a42.test.thedownwinder.com.&#45;&gt;HostedZone::default::/hostedzone/Z020753517XIHYCCGLWF9</title>
<path fill="none" stroke="#383838" d="M398.04,-2165.74C403.97,-2162.22 409.66,-2158.31 415,-2154 499.48,-2085.8 533.58,-1954.54 545.87,-1888.31"/>
<polygon fill="#383838" stroke="#383838" points="549.35,-1888.72 547.66,-1878.26 542.46,-1887.49 549.35,-1888.72"/>
</g>
</g>
</svg>
