<?xml version="1.0" encoding="UTF-8" standalone="no"?>
<!DOCTYPE svg PUBLIC "-//W3C//DTD SVG 1.1//EN"
 "http://www.w3.org/Graphics/SVG/1.1/DTD/svg11.dtd">
<!-- Generated by graphviz version 2.47.0 (20210316.0004)
 -->
<!-- Title: graphname Pages: 1 -->
<svg width="485pt" height="1288pt"
 viewBox="0.00 0.00 485.00 1288.00" xmlns="http://www.w3.org/2000/svg" xmlns:xlink="http://www.w3.org/1999/xlink">
<g id="graph0" class="graph" transform="scale(1 1) rotate(0) translate(4 1284)">
<title>graphname</title>
<polygon fill="white" stroke="transparent" points="-4,4 -4,-1284 481,-1284 481,4 -4,4"/>
<g id="clust1" class="cluster">
<title>cluster_aws</title>
<polygon fill="none" stroke="#383838" points="8,-8 8,-1272 469,-1272 469,-8 8,-8"/>
<text text-anchor="start" x="219" y="-1253" font-family="Helvetica,sans-Serif" font-weight="bold" font-size="20.00" fill="#383838">aws</text>
</g>
<!-- S3Bucket::tutogrucloud2.com -->
<g id="node1" class="node">
<title>S3Bucket::tutogrucloud2.com</title>
<polygon fill="none" stroke="#383838" points="461,-648.5 326,-648.5 326,-601.5 461,-601.5 461,-648.5"/>
<text text-anchor="start" x="338.5" y="-633" font-family="Helvetica,sans-Serif" font-weight="bold" font-size="10.00" fill="#707070">S3Bucket</text>
<text text-anchor="start" x="338.5" y="-612.6" font-family="Helvetica,sans-Serif" font-size="13.00" fill="#383838">tutogrucloud2.com</text>
</g>
<!-- S3Object::asset&#45;manifest.json -->
<g id="node2" class="node">
<title>S3Object::asset&#45;manifest.json</title>
<polygon fill="none" stroke="#383838" points="223,-1233.5 83,-1233.5 83,-1186.5 223,-1186.5 223,-1233.5"/>
<text text-anchor="start" x="95" y="-1218" font-family="Helvetica,sans-Serif" font-weight="bold" font-size="10.00" fill="#707070">S3Object</text>
<text text-anchor="start" x="95" y="-1197.6" font-family="Helvetica,sans-Serif" font-size="13.00" fill="#383838">asset&#45;manifest.json</text>
</g>
<!-- S3Object::asset&#45;manifest.json&#45;&gt;S3Bucket::tutogrucloud2.com -->
<g id="edge1" class="edge">
<title>S3Object::asset&#45;manifest.json&#45;&gt;S3Bucket::tutogrucloud2.com</title>
<path fill="none" stroke="#383838" d="M223.2,-1208.75C247.38,-1204.8 272.76,-1196.08 290,-1178 362.05,-1102.42 385.25,-767.14 390.94,-658.85"/>
<polygon fill="#383838" stroke="#383838" points="394.44,-658.97 391.45,-648.8 387.45,-658.61 394.44,-658.97"/>
</g>
<!-- S3Object::favicon.ico -->
<g id="node3" class="node">
<title>S3Object::favicon.ico</title>
<polygon fill="none" stroke="#383838" points="197,-1168.5 109,-1168.5 109,-1121.5 197,-1121.5 197,-1168.5"/>
<text text-anchor="start" x="121" y="-1153" font-family="Helvetica,sans-Serif" font-weight="bold" font-size="10.00" fill="#707070">S3Object</text>
<text text-anchor="start" x="121" y="-1132.6" font-family="Helvetica,sans-Serif" font-size="13.00" fill="#383838">favicon.ico</text>
</g>
<!-- S3Object::favicon.ico&#45;&gt;S3Bucket::tutogrucloud2.com -->
<g id="edge2" class="edge">
<title>S3Object::favicon.ico&#45;&gt;S3Bucket::tutogrucloud2.com</title>
<path fill="none" stroke="#383838" d="M197.21,-1146.24C227.28,-1144.69 266.11,-1137.47 290,-1113 353.82,-1047.63 382.08,-758.34 390.03,-658.79"/>
<polygon fill="#383838" stroke="#383838" points="393.53,-658.93 390.82,-648.69 386.55,-658.38 393.53,-658.93"/>
</g>
<!-- S3Object::index.html -->
<g id="node4" class="node">
<title>S3Object::index.html</title>
<polygon fill="none" stroke="#383838" points="195.5,-1103.5 110.5,-1103.5 110.5,-1056.5 195.5,-1056.5 195.5,-1103.5"/>
<text text-anchor="start" x="123" y="-1088" font-family="Helvetica,sans-Serif" font-weight="bold" font-size="10.00" fill="#707070">S3Object</text>
<text text-anchor="start" x="123" y="-1067.6" font-family="Helvetica,sans-Serif" font-size="13.00" fill="#383838">index.html</text>
</g>
<!-- S3Object::index.html&#45;&gt;S3Bucket::tutogrucloud2.com -->
<g id="edge3" class="edge">
<title>S3Object::index.html&#45;&gt;S3Bucket::tutogrucloud2.com</title>
<path fill="none" stroke="#383838" d="M195.72,-1081.09C225.84,-1079.57 265.39,-1072.45 290,-1048 345.69,-992.68 378.5,-748.52 388.89,-658.49"/>
<polygon fill="#383838" stroke="#383838" points="392.37,-658.87 390.02,-648.54 385.41,-658.08 392.37,-658.87"/>
</g>
<!-- S3Object::logo192.png -->
<g id="node5" class="node">
<title>S3Object::logo192.png</title>
<polygon fill="none" stroke="#383838" points="202.5,-1038.5 103.5,-1038.5 103.5,-991.5 202.5,-991.5 202.5,-1038.5"/>
<text text-anchor="start" x="116" y="-1023" font-family="Helvetica,sans-Serif" font-weight="bold" font-size="10.00" fill="#707070">S3Object</text>
<text text-anchor="start" x="116" y="-1002.6" font-family="Helvetica,sans-Serif" font-size="13.00" fill="#383838">logo192.png</text>
</g>
<!-- S3Object::logo192.png&#45;&gt;S3Bucket::tutogrucloud2.com -->
<g id="edge4" class="edge">
<title>S3Object::logo192.png&#45;&gt;S3Bucket::tutogrucloud2.com</title>
<path fill="none" stroke="#383838" d="M202.5,-1015.3C231.39,-1012.91 266.83,-1005.09 290,-983 382.35,-894.95 393.23,-729.88 393.37,-658.88"/>
<polygon fill="#383838" stroke="#383838" points="396.87,-658.69 393.31,-648.71 389.87,-658.73 396.87,-658.69"/>
</g>
<!-- S3Object::logo512.png -->
<g id="node6" class="node">
<title>S3Object::logo512.png</title>
<polygon fill="none" stroke="#383838" points="202.5,-973.5 103.5,-973.5 103.5,-926.5 202.5,-926.5 202.5,-973.5"/>
<text text-anchor="start" x="116" y="-958" font-family="Helvetica,sans-Serif" font-weight="bold" font-size="10.00" fill="#707070">S3Object</text>
<text text-anchor="start" x="116" y="-937.6" font-family="Helvetica,sans-Serif" font-size="13.00" fill="#383838">logo512.png</text>
</g>
<!-- S3Object::logo512.png&#45;&gt;S3Bucket::tutogrucloud2.com -->
<g id="edge5" class="edge">
<title>S3Object::logo512.png&#45;&gt;S3Bucket::tutogrucloud2.com</title>
<path fill="none" stroke="#383838" d="M202.71,-949.76C231.32,-947.13 266.38,-939.25 290,-918 366.34,-849.31 385.82,-720.54 390.8,-659.19"/>
<polygon fill="#383838" stroke="#383838" points="394.31,-659.12 391.54,-648.89 387.33,-658.61 394.31,-659.12"/>
</g>
<!-- S3Object::manifest.json -->
<g id="node7" class="node">
<title>S3Object::manifest.json</title>
<polygon fill="none" stroke="#383838" points="204.5,-908.5 101.5,-908.5 101.5,-861.5 204.5,-861.5 204.5,-908.5"/>
<text text-anchor="start" x="114" y="-893" font-family="Helvetica,sans-Serif" font-weight="bold" font-size="10.00" fill="#707070">S3Object</text>
<text text-anchor="start" x="114" y="-872.6" font-family="Helvetica,sans-Serif" font-size="13.00" fill="#383838">manifest.json</text>
</g>
<!-- S3Object::manifest.json&#45;&gt;S3Bucket::tutogrucloud2.com -->
<g id="edge6" class="edge">
<title>S3Object::manifest.json&#45;&gt;S3Bucket::tutogrucloud2.com</title>
<path fill="none" stroke="#383838" d="M204.69,-883.74C232.58,-880.63 266.24,-872.6 290,-853 350.79,-802.86 376.91,-709.13 386.96,-658.89"/>
<polygon fill="#383838" stroke="#383838" points="390.44,-659.33 388.87,-648.85 383.56,-658.02 390.44,-659.33"/>
</g>
<!-- S3Object::robots.txt -->
<g id="node8" class="node">
<title>S3Object::robots.txt</title>
<polygon fill="none" stroke="#383838" points="193,-843.5 113,-843.5 113,-796.5 193,-796.5 193,-843.5"/>
<text text-anchor="start" x="125" y="-828" font-family="Helvetica,sans-Serif" font-weight="bold" font-size="10.00" fill="#707070">S3Object</text>
<text text-anchor="start" x="125" y="-807.6" font-family="Helvetica,sans-Serif" font-size="13.00" fill="#383838">robots.txt</text>
</g>
<!-- S3Object::robots.txt&#45;&gt;S3Bucket::tutogrucloud2.com -->
<g id="edge7" class="edge">
<title>S3Object::robots.txt&#45;&gt;S3Bucket::tutogrucloud2.com</title>
<path fill="none" stroke="#383838" d="M193.3,-818.61C222.37,-815.84 261.68,-808.23 290,-788 335.7,-755.36 365.56,-695.37 380.69,-657.98"/>
<polygon fill="#383838" stroke="#383838" points="384,-659.12 384.39,-648.53 377.48,-656.56 384,-659.12"/>
</g>
<!-- S3Object::static/css/main.ab7136cd.chunk.css -->
<g id="node9" class="node">
<title>S3Object::static/css/main.ab7136cd.chunk.css</title>
<polygon fill="none" stroke="#383838" points="272.5,-778.5 33.5,-778.5 33.5,-731.5 272.5,-731.5 272.5,-778.5"/>
<text text-anchor="start" x="46" y="-763" font-family="Helvetica,sans-Serif" font-weight="bold" font-size="10.00" fill="#707070">S3Object</text>
<text text-anchor="start" x="46" y="-742.6" font-family="Helvetica,sans-Serif" font-size="13.00" fill="#383838">static/css/main.ab7136cd.chunk.css</text>
</g>
<!-- S3Object::static/css/main.ab7136cd.chunk.css&#45;&gt;S3Bucket::tutogrucloud2.com -->
<g id="edge8" class="edge">
<title>S3Object::static/css/main.ab7136cd.chunk.css&#45;&gt;S3Bucket::tutogrucloud2.com</title>
<path fill="none" stroke="#383838" d="M271.96,-731.49C278.19,-728.94 284.24,-726.12 290,-723 320.65,-706.38 348.75,-678.16 367.75,-656.26"/>
<polygon fill="#383838" stroke="#383838" points="370.52,-658.4 374.32,-648.51 365.19,-653.87 370.52,-658.4"/>
</g>
<!-- S3Object::static/css/main.ab7136cd.chunk.css.map -->
<g id="node10" class="node">
<title>S3Object::static/css/main.ab7136cd.chunk.css.map</title>
<polygon fill="none" stroke="#383838" points="287,-713.5 19,-713.5 19,-666.5 287,-666.5 287,-713.5"/>
<text text-anchor="start" x="31" y="-698" font-family="Helvetica,sans-Serif" font-weight="bold" font-size="10.00" fill="#707070">S3Object</text>
<text text-anchor="start" x="31" y="-677.6" font-family="Helvetica,sans-Serif" font-size="13.00" fill="#383838">static/css/main.ab7136cd.chunk.css.map</text>
</g>
<!-- S3Object::static/css/main.ab7136cd.chunk.css.map&#45;&gt;S3Bucket::tutogrucloud2.com -->
<g id="edge9" class="edge">
<title>S3Object::static/css/main.ab7136cd.chunk.css.map&#45;&gt;S3Bucket::tutogrucloud2.com</title>
<path fill="none" stroke="#383838" d="M257.81,-666.49C268.71,-663.75 279.6,-660.89 290,-658 298.44,-655.65 307.23,-653.06 315.95,-650.39"/>
<polygon fill="#383838" stroke="#383838" points="317.23,-653.65 325.74,-647.35 315.16,-646.97 317.23,-653.65"/>
</g>
<!-- S3Object::static/js/2.1b7af346.chunk.js -->
<g id="node11" class="node">
<title>S3Object::static/js/2.1b7af346.chunk.js</title>
<polygon fill="none" stroke="#383838" points="250,-648.5 56,-648.5 56,-601.5 250,-601.5 250,-648.5"/>
<text text-anchor="start" x="68" y="-633" font-family="Helvetica,sans-Serif" font-weight="bold" font-size="10.00" fill="#707070">S3Object</text>
<text text-anchor="start" x="68" y="-612.6" font-family="Helvetica,sans-Serif" font-size="13.00" fill="#383838">static/js/2.1b7af346.chunk.js</text>
</g>
<!-- S3Object::static/js/2.1b7af346.chunk.js&#45;&gt;S3Bucket::tutogrucloud2.com -->
<g id="edge10" class="edge">
<title>S3Object::static/js/2.1b7af346.chunk.js&#45;&gt;S3Bucket::tutogrucloud2.com</title>
<path fill="none" stroke="#383838" d="M250.32,-625C272.1,-625 294.93,-625 315.77,-625"/>
<polygon fill="#383838" stroke="#383838" points="315.83,-628.5 325.83,-625 315.83,-621.5 315.83,-628.5"/>
</g>
<!-- S3Object::static/js/2.1b7af346.chunk.js.LICENSE.txt -->
<g id="node12" class="node">
<title>S3Object::static/js/2.1b7af346.chunk.js.LICENSE.txt</title>
<polygon fill="none" stroke="#383838" points="290,-583.5 16,-583.5 16,-536.5 290,-536.5 290,-583.5"/>
<text text-anchor="start" x="28" y="-568" font-family="Helvetica,sans-Serif" font-weight="bold" font-size="10.00" fill="#707070">S3Object</text>
<text text-anchor="start" x="28" y="-547.6" font-family="Helvetica,sans-Serif" font-size="13.00" fill="#383838">static/js/2.1b7af346.chunk.js.LICENSE.txt</text>
</g>
<!-- S3Object::static/js/2.1b7af346.chunk.js.LICENSE.txt&#45;&gt;S3Bucket::tutogrucloud2.com -->
<g id="edge11" class="edge">
<title>S3Object::static/js/2.1b7af346.chunk.js.LICENSE.txt&#45;&gt;S3Bucket::tutogrucloud2.com</title>
<path fill="none" stroke="#383838" d="M254.09,-583.51C266.22,-586.58 278.41,-589.79 290,-593 298.58,-595.38 307.52,-597.98 316.39,-600.64"/>
<polygon fill="#383838" stroke="#383838" points="315.38,-603.99 325.97,-603.55 317.41,-597.29 315.38,-603.99"/>
</g>
<!-- S3Object::static/js/2.1b7af346.chunk.js.map -->
<g id="node13" class="node">
<title>S3Object::static/js/2.1b7af346.chunk.js.map</title>
<polygon fill="none" stroke="#383838" points="264.5,-518.5 41.5,-518.5 41.5,-471.5 264.5,-471.5 264.5,-518.5"/>
<text text-anchor="start" x="54" y="-503" font-family="Helvetica,sans-Serif" font-weight="bold" font-size="10.00" fill="#707070">S3Object</text>
<text text-anchor="start" x="54" y="-482.6" font-family="Helvetica,sans-Serif" font-size="13.00" fill="#383838">static/js/2.1b7af346.chunk.js.map</text>
</g>
<!-- S3Object::static/js/2.1b7af346.chunk.js.map&#45;&gt;S3Bucket::tutogrucloud2.com -->
<g id="edge12" class="edge">
<title>S3Object::static/js/2.1b7af346.chunk.js.map&#45;&gt;S3Bucket::tutogrucloud2.com</title>
<path fill="none" stroke="#383838" d="M264.61,-516.57C273.42,-519.86 282,-523.65 290,-528 320.29,-544.47 348.25,-572.14 367.29,-593.72"/>
<polygon fill="#383838" stroke="#383838" points="364.71,-596.08 373.89,-601.37 370,-591.51 364.71,-596.08"/>
</g>
<!-- S3Object::static/js/3.58f74695.chunk.js -->
<g id="node14" class="node">
<title>S3Object::static/js/3.58f74695.chunk.js</title>
<polygon fill="none" stroke="#383838" points="250,-453.5 56,-453.5 56,-406.5 250,-406.5 250,-453.5"/>
<text text-anchor="start" x="68" y="-438" font-family="Helvetica,sans-Serif" font-weight="bold" font-size="10.00" fill="#707070">S3Object</text>
<text text-anchor="start" x="68" y="-417.6" font-family="Helvetica,sans-Serif" font-size="13.00" fill="#383838">static/js/3.58f74695.chunk.js</text>
</g>
<!-- S3Object::static/js/3.58f74695.chunk.js&#45;&gt;S3Bucket::tutogrucloud2.com -->
<g id="edge13" class="edge">
<title>S3Object::static/js/3.58f74695.chunk.js&#45;&gt;S3Bucket::tutogrucloud2.com</title>
<path fill="none" stroke="#383838" d="M250.26,-443.47C264.39,-448.17 278.16,-454.5 290,-463 335.3,-495.5 365.21,-554.84 380.47,-591.97"/>
<polygon fill="#383838" stroke="#383838" points="377.26,-593.37 384.21,-601.36 383.76,-590.78 377.26,-593.37"/>
</g>
<!-- S3Object::static/js/3.58f74695.chunk.js.map -->
<g id="node15" class="node">
<title>S3Object::static/js/3.58f74695.chunk.js.map</title>
<polygon fill="none" stroke="#383838" points="264.5,-388.5 41.5,-388.5 41.5,-341.5 264.5,-341.5 264.5,-388.5"/>
<text text-anchor="start" x="54" y="-373" font-family="Helvetica,sans-Serif" font-weight="bold" font-size="10.00" fill="#707070">S3Object</text>
<text text-anchor="start" x="54" y="-352.6" font-family="Helvetica,sans-Serif" font-size="13.00" fill="#383838">static/js/3.58f74695.chunk.js.map</text>
</g>
<!-- S3Object::static/js/3.58f74695.chunk.js.map&#45;&gt;S3Bucket::tutogrucloud2.com -->
<g id="edge14" class="edge">
<title>S3Object::static/js/3.58f74695.chunk.js.map&#45;&gt;S3Bucket::tutogrucloud2.com</title>
<path fill="none" stroke="#383838" d="M264.76,-382.43C273.84,-386.6 282.43,-391.72 290,-398 350.44,-448.12 376.71,-541.35 386.87,-591.31"/>
<polygon fill="#383838" stroke="#383838" points="383.47,-592.14 388.8,-601.29 390.34,-590.8 383.47,-592.14"/>
</g>
<!-- S3Object::static/js/main.8bc31107.chunk.js -->
<g id="node16" class="node">
<title>S3Object::static/js/main.8bc31107.chunk.js</title>
<polygon fill="none" stroke="#383838" points="261.5,-323.5 44.5,-323.5 44.5,-276.5 261.5,-276.5 261.5,-323.5"/>
<text text-anchor="start" x="57" y="-308" font-family="Helvetica,sans-Serif" font-weight="bold" font-size="10.00" fill="#707070">S3Object</text>
<text text-anchor="start" x="57" y="-287.6" font-family="Helvetica,sans-Serif" font-size="13.00" fill="#383838">static/js/main.8bc31107.chunk.js</text>
</g>
<!-- S3Object::static/js/main.8bc31107.chunk.js&#45;&gt;S3Bucket::tutogrucloud2.com -->
<g id="edge15" class="edge">
<title>S3Object::static/js/main.8bc31107.chunk.js&#45;&gt;S3Bucket::tutogrucloud2.com</title>
<path fill="none" stroke="#383838" d="M261.68,-315.05C272.01,-319.63 281.71,-325.5 290,-333 365.91,-401.7 385.6,-529.92 390.71,-590.98"/>
<polygon fill="#383838" stroke="#383838" points="387.24,-591.52 391.48,-601.23 394.22,-590.99 387.24,-591.52"/>
</g>
<!-- S3Object::static/js/main.8bc31107.chunk.js.map -->
<g id="node17" class="node">
<title>S3Object::static/js/main.8bc31107.chunk.js.map</title>
<polygon fill="none" stroke="#383838" points="276,-258.5 30,-258.5 30,-211.5 276,-211.5 276,-258.5"/>
<text text-anchor="start" x="42" y="-243" font-family="Helvetica,sans-Serif" font-weight="bold" font-size="10.00" fill="#707070">S3Object</text>
<text text-anchor="start" x="42" y="-222.6" font-family="Helvetica,sans-Serif" font-size="13.00" fill="#383838">static/js/main.8bc31107.chunk.js.map</text>
</g>
<!-- S3Object::static/js/main.8bc31107.chunk.js.map&#45;&gt;S3Bucket::tutogrucloud2.com -->
<g id="edge16" class="edge">
<title>S3Object::static/js/main.8bc31107.chunk.js.map&#45;&gt;S3Bucket::tutogrucloud2.com</title>
<path fill="none" stroke="#383838" d="M276.27,-257.24C281.18,-260.39 285.79,-263.96 290,-268 381.84,-356.1 393,-520.56 393.29,-591.26"/>
<polygon fill="#383838" stroke="#383838" points="389.79,-591.38 393.25,-601.39 396.79,-591.4 389.79,-591.38"/>
</g>
<!-- S3Object::static/js/runtime&#45;main.cf331991.js -->
<g id="node18" class="node">
<title>S3Object::static/js/runtime&#45;main.cf331991.js</title>
<polygon fill="none" stroke="#383838" points="264.5,-193.5 41.5,-193.5 41.5,-146.5 264.5,-146.5 264.5,-193.5"/>
<text text-anchor="start" x="54" y="-178" font-family="Helvetica,sans-Serif" font-weight="bold" font-size="10.00" fill="#707070">S3Object</text>
<text text-anchor="start" x="54" y="-157.6" font-family="Helvetica,sans-Serif" font-size="13.00" fill="#383838">static/js/runtime&#45;main.cf331991.js</text>
</g>
<!-- S3Object::static/js/runtime&#45;main.cf331991.js&#45;&gt;S3Bucket::tutogrucloud2.com -->
<g id="edge17" class="edge">
<title>S3Object::static/js/runtime&#45;main.cf331991.js&#45;&gt;S3Bucket::tutogrucloud2.com</title>
<path fill="none" stroke="#383838" d="M264.76,-185.34C274.07,-189.91 282.7,-195.7 290,-203 345.33,-258.31 378.31,-501.28 388.82,-591.3"/>
<polygon fill="#383838" stroke="#383838" points="385.34,-591.71 389.96,-601.25 392.3,-590.92 385.34,-591.71"/>
</g>
<!-- S3Object::static/js/runtime&#45;main.cf331991.js.map -->
<g id="node19" class="node">
<title>S3Object::static/js/runtime&#45;main.cf331991.js.map</title>
<polygon fill="none" stroke="#383838" points="279.5,-128.5 26.5,-128.5 26.5,-81.5 279.5,-81.5 279.5,-128.5"/>
<text text-anchor="start" x="39" y="-113" font-family="Helvetica,sans-Serif" font-weight="bold" font-size="10.00" fill="#707070">S3Object</text>
<text text-anchor="start" x="39" y="-92.6" font-family="Helvetica,sans-Serif" font-size="13.00" fill="#383838">static/js/runtime&#45;main.cf331991.js.map</text>
</g>
<!-- S3Object::static/js/runtime&#45;main.cf331991.js.map&#45;&gt;S3Bucket::tutogrucloud2.com -->
<g id="edge18" class="edge">
<title>S3Object::static/js/runtime&#45;main.cf331991.js.map&#45;&gt;S3Bucket::tutogrucloud2.com</title>
<path fill="none" stroke="#383838" d="M279.01,-128.53C282.93,-131.37 286.62,-134.51 290,-138 353.48,-203.45 381.96,-492 390,-591.3"/>
<polygon fill="#383838" stroke="#383838" points="386.52,-591.68 390.8,-601.38 393.5,-591.13 386.52,-591.68"/>
</g>
<!-- S3Object::static/media/logo.6ce24c58.svg -->
<g id="node20" class="node">
<title>S3Object::static/media/logo.6ce24c58.svg</title>
<polygon fill="none" stroke="#383838" points="259,-63.5 47,-63.5 47,-16.5 259,-16.5 259,-63.5"/>
<text text-anchor="start" x="59" y="-48" font-family="Helvetica,sans-Serif" font-weight="bold" font-size="10.00" fill="#707070">S3Object</text>
<text text-anchor="start" x="59" y="-27.6" font-family="Helvetica,sans-Serif" font-size="13.00" fill="#383838">static/media/logo.6ce24c58.svg</text>
</g>
<!-- S3Object::static/media/logo.6ce24c58.svg&#45;&gt;S3Bucket::tutogrucloud2.com -->
<g id="edge19" class="edge">
<title>S3Object::static/media/logo.6ce24c58.svg&#45;&gt;S3Bucket::tutogrucloud2.com</title>
<path fill="none" stroke="#383838" d="M259.23,-52.14C270.75,-57.15 281.4,-63.91 290,-73 361.67,-148.68 385.13,-483.2 390.91,-591.23"/>
<polygon fill="#383838" stroke="#383838" points="387.42,-591.45 391.43,-601.25 394.41,-591.08 387.42,-591.45"/>
</g>
</g>
</svg>
